# xmcd CD database file
#
# Track frame offsets:
#	150
#	14670
#	38900
#	62750
#	83017
#	107992
#	136482
#	143752
#
# Disc length: 2239 seconds
#
# Revision: 0
# Processed by: cddbd v1.5.1PL0 Copyright (c) Steve Scherf et al.
# Submitted via: CDex 1.60beta1
#
DISCID=6d08bd08
DTITLE=hard Romantic - Modern Ambient Colours
DYEAR=1998
DGENRE=New Age
TTITLE0=Paradis
TTITLE1=Luna De Sentimento
TTITLE2=Resonance Of Love
TTITLE3=Romanza
TTITLE4=La Preghtera - Ave Maria -
TTITLE5=Paradiso
TTITLE6=Dulcet Glass
TTITLE7=Luna De Sentimento - Lunatic Version
EXTD=YEAR: 1998
EXTT0=
EXTT1=
EXTT2=
EXTT3=
EXTT4=
EXTT5=
EXTT6=
EXTT7=
PLAYORDER=
